<mxfile host="app.diagrams.net" agent="Mozilla/5.0 (Windows NT 10.0; Win64; x64) AppleWebKit/537.36 (KHTML, like Gecko) Chrome/138.0.0.0 Safari/537.36" version="28.0.7">
  <diagram name="PÃ¡gina-1" id="wKJkgjvx-LNxscjWsxbJ">
    <mxGraphModel dx="2430" dy="877" grid="1" gridSize="10" guides="1" tooltips="1" connect="1" arrows="1" fold="1" page="1" pageScale="1" pageWidth="827" pageHeight="1169" math="0" shadow="0">
      <root>
        <mxCell id="0" />
        <mxCell id="1" parent="0" />
        <mxCell id="hLjN54tpJvyU8sjbUc9N-39" style="edgeStyle=orthogonalEdgeStyle;rounded=0;orthogonalLoop=1;jettySize=auto;html=1;exitX=0.5;exitY=1;exitDx=0;exitDy=0;exitPerimeter=0;entryX=0.5;entryY=0;entryDx=0;entryDy=0;" parent="1" source="hLjN54tpJvyU8sjbUc9N-3" target="hLjN54tpJvyU8sjbUc9N-42" edge="1">
          <mxGeometry relative="1" as="geometry">
            <mxPoint x="384" y="320" as="targetPoint" />
          </mxGeometry>
        </mxCell>
        <mxCell id="nqYZnZJpOVF91P2B-A_t-28" style="edgeStyle=orthogonalEdgeStyle;rounded=0;orthogonalLoop=1;jettySize=auto;html=1;exitX=1;exitY=0.5;exitDx=0;exitDy=0;exitPerimeter=0;entryX=0;entryY=0.5;entryDx=0;entryDy=0;" edge="1" parent="1" source="hLjN54tpJvyU8sjbUc9N-3">
          <mxGeometry relative="1" as="geometry">
            <mxPoint x="500" y="200" as="targetPoint" />
          </mxGeometry>
        </mxCell>
        <mxCell id="nqYZnZJpOVF91P2B-A_t-68" style="edgeStyle=orthogonalEdgeStyle;rounded=0;orthogonalLoop=1;jettySize=auto;html=1;exitX=1;exitY=0.5;exitDx=0;exitDy=0;exitPerimeter=0;entryX=0;entryY=0.5;entryDx=0;entryDy=0;" edge="1" parent="1" source="hLjN54tpJvyU8sjbUc9N-3" target="nqYZnZJpOVF91P2B-A_t-64">
          <mxGeometry relative="1" as="geometry" />
        </mxCell>
        <mxCell id="nqYZnZJpOVF91P2B-A_t-70" style="edgeStyle=orthogonalEdgeStyle;rounded=0;orthogonalLoop=1;jettySize=auto;html=1;exitX=1;exitY=0.5;exitDx=0;exitDy=0;exitPerimeter=0;entryX=0;entryY=0.5;entryDx=0;entryDy=0;" edge="1" parent="1" source="hLjN54tpJvyU8sjbUc9N-3" target="nqYZnZJpOVF91P2B-A_t-65">
          <mxGeometry relative="1" as="geometry" />
        </mxCell>
        <mxCell id="nqYZnZJpOVF91P2B-A_t-73" style="edgeStyle=orthogonalEdgeStyle;rounded=0;orthogonalLoop=1;jettySize=auto;html=1;exitX=1;exitY=0.5;exitDx=0;exitDy=0;exitPerimeter=0;entryX=0;entryY=0.5;entryDx=0;entryDy=0;" edge="1" parent="1" source="hLjN54tpJvyU8sjbUc9N-3" target="nqYZnZJpOVF91P2B-A_t-71">
          <mxGeometry relative="1" as="geometry" />
        </mxCell>
        <mxCell id="hLjN54tpJvyU8sjbUc9N-3" value="" style="verticalLabelPosition=bottom;verticalAlign=top;html=1;shape=mxgraph.basic.frame;dx=10;whiteSpace=wrap;" parent="1" vertex="1">
          <mxGeometry x="334" y="190" width="100" height="60" as="geometry" />
        </mxCell>
        <mxCell id="hLjN54tpJvyU8sjbUc9N-5" value="Pedido" style="text;html=1;align=center;verticalAlign=middle;resizable=0;points=[];autosize=1;strokeColor=none;fillColor=none;" parent="1" vertex="1">
          <mxGeometry x="354" y="205" width="60" height="30" as="geometry" />
        </mxCell>
        <mxCell id="nqYZnZJpOVF91P2B-A_t-127" style="edgeStyle=orthogonalEdgeStyle;rounded=0;orthogonalLoop=1;jettySize=auto;html=1;exitX=0;exitY=0.5;exitDx=0;exitDy=0;entryX=1;entryY=0.5;entryDx=0;entryDy=0;" edge="1" parent="1" source="hLjN54tpJvyU8sjbUc9N-41" target="nqYZnZJpOVF91P2B-A_t-128">
          <mxGeometry relative="1" as="geometry">
            <mxPoint x="280" y="290" as="targetPoint" />
          </mxGeometry>
        </mxCell>
        <mxCell id="nqYZnZJpOVF91P2B-A_t-132" style="edgeStyle=orthogonalEdgeStyle;rounded=0;orthogonalLoop=1;jettySize=auto;html=1;exitX=0;exitY=0.5;exitDx=0;exitDy=0;entryX=1;entryY=0.5;entryDx=0;entryDy=0;" edge="1" parent="1" source="hLjN54tpJvyU8sjbUc9N-41" target="nqYZnZJpOVF91P2B-A_t-129">
          <mxGeometry relative="1" as="geometry" />
        </mxCell>
        <mxCell id="nqYZnZJpOVF91P2B-A_t-133" style="edgeStyle=orthogonalEdgeStyle;rounded=0;orthogonalLoop=1;jettySize=auto;html=1;exitX=0;exitY=0.5;exitDx=0;exitDy=0;entryX=1;entryY=0.5;entryDx=0;entryDy=0;" edge="1" parent="1" source="hLjN54tpJvyU8sjbUc9N-41" target="nqYZnZJpOVF91P2B-A_t-130">
          <mxGeometry relative="1" as="geometry" />
        </mxCell>
        <mxCell id="nqYZnZJpOVF91P2B-A_t-134" style="edgeStyle=orthogonalEdgeStyle;rounded=0;orthogonalLoop=1;jettySize=auto;html=1;exitX=0;exitY=0.5;exitDx=0;exitDy=0;entryX=1;entryY=0.5;entryDx=0;entryDy=0;" edge="1" parent="1" source="hLjN54tpJvyU8sjbUc9N-41" target="nqYZnZJpOVF91P2B-A_t-131">
          <mxGeometry relative="1" as="geometry" />
        </mxCell>
        <mxCell id="hLjN54tpJvyU8sjbUc9N-41" value="" style="rounded=0;whiteSpace=wrap;html=1;" parent="1" vertex="1">
          <mxGeometry x="324" y="410" width="120" height="60" as="geometry" />
        </mxCell>
        <mxCell id="hLjN54tpJvyU8sjbUc9N-42" value="Contiene" style="rhombus;whiteSpace=wrap;html=1;" parent="1" vertex="1">
          <mxGeometry x="329" y="410" width="110" height="60" as="geometry" />
        </mxCell>
        <mxCell id="hLjN54tpJvyU8sjbUc9N-45" style="edgeStyle=orthogonalEdgeStyle;rounded=0;orthogonalLoop=1;jettySize=auto;html=1;entryX=0;entryY=0.5;entryDx=0;entryDy=0;entryPerimeter=0;" parent="1" source="hLjN54tpJvyU8sjbUc9N-44" edge="1" target="hLjN54tpJvyU8sjbUc9N-3">
          <mxGeometry relative="1" as="geometry">
            <mxPoint x="330" y="220" as="targetPoint" />
          </mxGeometry>
        </mxCell>
        <mxCell id="hLjN54tpJvyU8sjbUc9N-44" value="Realiza" style="rhombus;whiteSpace=wrap;html=1;" parent="1" vertex="1">
          <mxGeometry x="60" y="190" width="110" height="60" as="geometry" />
        </mxCell>
        <mxCell id="hLjN54tpJvyU8sjbUc9N-52" value="(1,n)" style="text;html=1;align=center;verticalAlign=middle;resizable=0;points=[];autosize=1;strokeColor=none;fillColor=none;" parent="1" vertex="1">
          <mxGeometry x="384" y="250" width="50" height="30" as="geometry" />
        </mxCell>
        <mxCell id="hLjN54tpJvyU8sjbUc9N-55" value="(0,n)" style="text;html=1;align=center;verticalAlign=middle;resizable=0;points=[];autosize=1;strokeColor=none;fillColor=none;" parent="1" vertex="1">
          <mxGeometry x="274" y="220" width="50" height="30" as="geometry" />
        </mxCell>
        <mxCell id="nqYZnZJpOVF91P2B-A_t-31" style="edgeStyle=orthogonalEdgeStyle;rounded=0;orthogonalLoop=1;jettySize=auto;html=1;exitX=0.5;exitY=0;exitDx=0;exitDy=0;entryX=0;entryY=0.5;entryDx=0;entryDy=0;" edge="1" parent="1" source="hLjN54tpJvyU8sjbUc9N-58" target="hLjN54tpJvyU8sjbUc9N-44">
          <mxGeometry relative="1" as="geometry">
            <mxPoint x="-149.47058823529414" y="220" as="targetPoint" />
          </mxGeometry>
        </mxCell>
        <mxCell id="nqYZnZJpOVF91P2B-A_t-97" style="edgeStyle=orthogonalEdgeStyle;rounded=0;orthogonalLoop=1;jettySize=auto;html=1;exitX=0.5;exitY=1;exitDx=0;exitDy=0;entryX=0;entryY=0.5;entryDx=0;entryDy=0;" edge="1" parent="1" source="hLjN54tpJvyU8sjbUc9N-58" target="nqYZnZJpOVF91P2B-A_t-102">
          <mxGeometry relative="1" as="geometry">
            <mxPoint x="-150.31578947368416" y="720" as="targetPoint" />
          </mxGeometry>
        </mxCell>
        <mxCell id="nqYZnZJpOVF91P2B-A_t-104" style="edgeStyle=orthogonalEdgeStyle;rounded=0;orthogonalLoop=1;jettySize=auto;html=1;exitX=0.5;exitY=1;exitDx=0;exitDy=0;entryX=0;entryY=0.5;entryDx=0;entryDy=0;" edge="1" parent="1" source="hLjN54tpJvyU8sjbUc9N-58" target="nqYZnZJpOVF91P2B-A_t-98">
          <mxGeometry relative="1" as="geometry" />
        </mxCell>
        <mxCell id="nqYZnZJpOVF91P2B-A_t-105" style="edgeStyle=orthogonalEdgeStyle;rounded=0;orthogonalLoop=1;jettySize=auto;html=1;exitX=0.5;exitY=1;exitDx=0;exitDy=0;entryX=0;entryY=0.5;entryDx=0;entryDy=0;" edge="1" parent="1" source="hLjN54tpJvyU8sjbUc9N-58" target="nqYZnZJpOVF91P2B-A_t-103">
          <mxGeometry relative="1" as="geometry" />
        </mxCell>
        <mxCell id="nqYZnZJpOVF91P2B-A_t-106" style="edgeStyle=orthogonalEdgeStyle;rounded=0;orthogonalLoop=1;jettySize=auto;html=1;exitX=0.5;exitY=1;exitDx=0;exitDy=0;entryX=0;entryY=0.5;entryDx=0;entryDy=0;" edge="1" parent="1" source="hLjN54tpJvyU8sjbUc9N-58" target="nqYZnZJpOVF91P2B-A_t-101">
          <mxGeometry relative="1" as="geometry" />
        </mxCell>
        <mxCell id="nqYZnZJpOVF91P2B-A_t-125" style="edgeStyle=orthogonalEdgeStyle;rounded=0;orthogonalLoop=1;jettySize=auto;html=1;exitX=1;exitY=0.5;exitDx=0;exitDy=0;entryX=0.5;entryY=1;entryDx=0;entryDy=0;" edge="1" parent="1" source="hLjN54tpJvyU8sjbUc9N-58" target="nqYZnZJpOVF91P2B-A_t-124">
          <mxGeometry relative="1" as="geometry" />
        </mxCell>
        <mxCell id="hLjN54tpJvyU8sjbUc9N-58" value="Cliente" style="rounded=0;whiteSpace=wrap;html=1;" parent="1" vertex="1">
          <mxGeometry x="-210" y="280" width="120" height="60" as="geometry" />
        </mxCell>
        <mxCell id="hLjN54tpJvyU8sjbUc9N-59" value="(1,1)" style="text;html=1;align=center;verticalAlign=middle;resizable=0;points=[];autosize=1;strokeColor=none;fillColor=none;" parent="1" vertex="1">
          <mxGeometry x="-140" y="340" width="50" height="30" as="geometry" />
        </mxCell>
        <mxCell id="nqYZnZJpOVF91P2B-A_t-66" style="edgeStyle=orthogonalEdgeStyle;rounded=0;orthogonalLoop=1;jettySize=auto;html=1;exitX=0;exitY=0.5;exitDx=0;exitDy=0;entryX=0;entryY=0.5;entryDx=0;entryDy=0;" edge="1" parent="1">
          <mxGeometry relative="1" as="geometry">
            <mxPoint x="500" y="200" as="sourcePoint" />
            <mxPoint x="500" y="200" as="targetPoint" />
          </mxGeometry>
        </mxCell>
        <mxCell id="hLjN54tpJvyU8sjbUc9N-79" value="(1,n)" style="text;html=1;align=center;verticalAlign=middle;resizable=0;points=[];autosize=1;strokeColor=none;fillColor=none;" parent="1" vertex="1">
          <mxGeometry x="394" y="470" width="50" height="30" as="geometry" />
        </mxCell>
        <mxCell id="hLjN54tpJvyU8sjbUc9N-85" value="" style="edgeStyle=orthogonalEdgeStyle;rounded=0;orthogonalLoop=1;jettySize=auto;html=1;" parent="1" source="hLjN54tpJvyU8sjbUc9N-80" target="hLjN54tpJvyU8sjbUc9N-84" edge="1">
          <mxGeometry relative="1" as="geometry" />
        </mxCell>
        <mxCell id="nqYZnZJpOVF91P2B-A_t-43" style="edgeStyle=orthogonalEdgeStyle;rounded=0;orthogonalLoop=1;jettySize=auto;html=1;exitX=0.5;exitY=1;exitDx=0;exitDy=0;exitPerimeter=0;entryX=0.5;entryY=0;entryDx=0;entryDy=0;" edge="1" parent="1" source="hLjN54tpJvyU8sjbUc9N-80" target="nqYZnZJpOVF91P2B-A_t-42">
          <mxGeometry relative="1" as="geometry" />
        </mxCell>
        <mxCell id="nqYZnZJpOVF91P2B-A_t-148" style="edgeStyle=orthogonalEdgeStyle;rounded=0;orthogonalLoop=1;jettySize=auto;html=1;exitX=0;exitY=0.5;exitDx=0;exitDy=0;exitPerimeter=0;entryX=1;entryY=0.5;entryDx=0;entryDy=0;" edge="1" parent="1" source="hLjN54tpJvyU8sjbUc9N-80" target="nqYZnZJpOVF91P2B-A_t-136">
          <mxGeometry relative="1" as="geometry" />
        </mxCell>
        <mxCell id="nqYZnZJpOVF91P2B-A_t-149" style="edgeStyle=orthogonalEdgeStyle;rounded=0;orthogonalLoop=1;jettySize=auto;html=1;exitX=0;exitY=0.5;exitDx=0;exitDy=0;exitPerimeter=0;entryX=1;entryY=0.5;entryDx=0;entryDy=0;" edge="1" parent="1" source="hLjN54tpJvyU8sjbUc9N-80" target="nqYZnZJpOVF91P2B-A_t-137">
          <mxGeometry relative="1" as="geometry" />
        </mxCell>
        <mxCell id="nqYZnZJpOVF91P2B-A_t-151" style="edgeStyle=orthogonalEdgeStyle;rounded=0;orthogonalLoop=1;jettySize=auto;html=1;exitX=0;exitY=0.5;exitDx=0;exitDy=0;exitPerimeter=0;entryX=1;entryY=0.5;entryDx=0;entryDy=0;" edge="1" parent="1" source="hLjN54tpJvyU8sjbUc9N-80" target="nqYZnZJpOVF91P2B-A_t-138">
          <mxGeometry relative="1" as="geometry" />
        </mxCell>
        <mxCell id="nqYZnZJpOVF91P2B-A_t-152" style="edgeStyle=orthogonalEdgeStyle;rounded=0;orthogonalLoop=1;jettySize=auto;html=1;exitX=0;exitY=0.5;exitDx=0;exitDy=0;exitPerimeter=0;entryX=1;entryY=0.5;entryDx=0;entryDy=0;" edge="1" parent="1" source="hLjN54tpJvyU8sjbUc9N-80" target="nqYZnZJpOVF91P2B-A_t-139">
          <mxGeometry relative="1" as="geometry" />
        </mxCell>
        <mxCell id="nqYZnZJpOVF91P2B-A_t-153" style="edgeStyle=orthogonalEdgeStyle;rounded=0;orthogonalLoop=1;jettySize=auto;html=1;exitX=0;exitY=0.5;exitDx=0;exitDy=0;exitPerimeter=0;entryX=1;entryY=0.5;entryDx=0;entryDy=0;" edge="1" parent="1" source="hLjN54tpJvyU8sjbUc9N-80" target="nqYZnZJpOVF91P2B-A_t-140">
          <mxGeometry relative="1" as="geometry" />
        </mxCell>
        <mxCell id="nqYZnZJpOVF91P2B-A_t-154" style="edgeStyle=orthogonalEdgeStyle;rounded=0;orthogonalLoop=1;jettySize=auto;html=1;exitX=0;exitY=0.5;exitDx=0;exitDy=0;exitPerimeter=0;entryX=1;entryY=0.5;entryDx=0;entryDy=0;" edge="1" parent="1" source="hLjN54tpJvyU8sjbUc9N-80" target="nqYZnZJpOVF91P2B-A_t-141">
          <mxGeometry relative="1" as="geometry" />
        </mxCell>
        <mxCell id="nqYZnZJpOVF91P2B-A_t-155" style="edgeStyle=orthogonalEdgeStyle;rounded=0;orthogonalLoop=1;jettySize=auto;html=1;exitX=0;exitY=0.5;exitDx=0;exitDy=0;exitPerimeter=0;entryX=1;entryY=0.5;entryDx=0;entryDy=0;" edge="1" parent="1" source="hLjN54tpJvyU8sjbUc9N-80" target="nqYZnZJpOVF91P2B-A_t-142">
          <mxGeometry relative="1" as="geometry" />
        </mxCell>
        <mxCell id="nqYZnZJpOVF91P2B-A_t-156" style="edgeStyle=orthogonalEdgeStyle;rounded=0;orthogonalLoop=1;jettySize=auto;html=1;exitX=0;exitY=0.5;exitDx=0;exitDy=0;exitPerimeter=0;entryX=1;entryY=0.5;entryDx=0;entryDy=0;" edge="1" parent="1" source="hLjN54tpJvyU8sjbUc9N-80" target="nqYZnZJpOVF91P2B-A_t-143">
          <mxGeometry relative="1" as="geometry" />
        </mxCell>
        <mxCell id="nqYZnZJpOVF91P2B-A_t-157" style="edgeStyle=orthogonalEdgeStyle;rounded=0;orthogonalLoop=1;jettySize=auto;html=1;exitX=0;exitY=0.5;exitDx=0;exitDy=0;exitPerimeter=0;entryX=1;entryY=0.5;entryDx=0;entryDy=0;" edge="1" parent="1" source="hLjN54tpJvyU8sjbUc9N-80" target="nqYZnZJpOVF91P2B-A_t-146">
          <mxGeometry relative="1" as="geometry" />
        </mxCell>
        <mxCell id="hLjN54tpJvyU8sjbUc9N-80" value="" style="verticalLabelPosition=bottom;verticalAlign=top;html=1;shape=mxgraph.basic.frame;dx=10;whiteSpace=wrap;" parent="1" vertex="1">
          <mxGeometry x="334" y="520" width="100" height="60" as="geometry" />
        </mxCell>
        <mxCell id="hLjN54tpJvyU8sjbUc9N-81" value="Libro" style="text;html=1;align=center;verticalAlign=middle;resizable=0;points=[];autosize=1;strokeColor=none;fillColor=none;" parent="1" vertex="1">
          <mxGeometry x="359" y="535" width="50" height="30" as="geometry" />
        </mxCell>
        <mxCell id="hLjN54tpJvyU8sjbUc9N-82" style="edgeStyle=orthogonalEdgeStyle;rounded=0;orthogonalLoop=1;jettySize=auto;html=1;exitX=0.5;exitY=1;exitDx=0;exitDy=0;entryX=0.5;entryY=0;entryDx=0;entryDy=0;entryPerimeter=0;" parent="1" source="hLjN54tpJvyU8sjbUc9N-42" target="hLjN54tpJvyU8sjbUc9N-80" edge="1">
          <mxGeometry relative="1" as="geometry" />
        </mxCell>
        <mxCell id="hLjN54tpJvyU8sjbUc9N-83" value="(1,n)" style="text;html=1;align=center;verticalAlign=middle;resizable=0;points=[];autosize=1;strokeColor=none;fillColor=none;" parent="1" vertex="1">
          <mxGeometry x="394" y="580" width="50" height="30" as="geometry" />
        </mxCell>
        <mxCell id="nqYZnZJpOVF91P2B-A_t-1" style="edgeStyle=orthogonalEdgeStyle;rounded=0;orthogonalLoop=1;jettySize=auto;html=1;exitX=1;exitY=0.5;exitDx=0;exitDy=0;" edge="1" parent="1" source="hLjN54tpJvyU8sjbUc9N-84">
          <mxGeometry relative="1" as="geometry">
            <mxPoint x="680" y="550" as="targetPoint" />
          </mxGeometry>
        </mxCell>
        <mxCell id="hLjN54tpJvyU8sjbUc9N-84" value="&lt;div&gt;&lt;br&gt;&lt;/div&gt;&lt;div&gt;Existe&lt;/div&gt;" style="rhombus;whiteSpace=wrap;html=1;verticalAlign=top;" parent="1" vertex="1">
          <mxGeometry x="530" y="520" width="110" height="60" as="geometry" />
        </mxCell>
        <mxCell id="hLjN54tpJvyU8sjbUc9N-86" value="(1,n)" style="text;html=1;align=center;verticalAlign=middle;resizable=0;points=[];autosize=1;strokeColor=none;fillColor=none;" parent="1" vertex="1">
          <mxGeometry x="480" y="550" width="50" height="30" as="geometry" />
        </mxCell>
        <mxCell id="nqYZnZJpOVF91P2B-A_t-77" style="edgeStyle=orthogonalEdgeStyle;rounded=0;orthogonalLoop=1;jettySize=auto;html=1;exitX=0;exitY=0;exitDx=25;exitDy=60;exitPerimeter=0;entryX=0;entryY=0.5;entryDx=0;entryDy=0;" edge="1" parent="1" source="nqYZnZJpOVF91P2B-A_t-2" target="nqYZnZJpOVF91P2B-A_t-76">
          <mxGeometry relative="1" as="geometry" />
        </mxCell>
        <mxCell id="nqYZnZJpOVF91P2B-A_t-78" style="edgeStyle=orthogonalEdgeStyle;rounded=0;orthogonalLoop=1;jettySize=auto;html=1;exitX=0;exitY=0;exitDx=25;exitDy=60;exitPerimeter=0;entryX=0;entryY=0.5;entryDx=0;entryDy=0;" edge="1" parent="1" source="nqYZnZJpOVF91P2B-A_t-2" target="nqYZnZJpOVF91P2B-A_t-75">
          <mxGeometry relative="1" as="geometry" />
        </mxCell>
        <mxCell id="nqYZnZJpOVF91P2B-A_t-79" style="edgeStyle=orthogonalEdgeStyle;rounded=0;orthogonalLoop=1;jettySize=auto;html=1;exitX=0;exitY=0;exitDx=25;exitDy=60;exitPerimeter=0;entryX=0;entryY=0.5;entryDx=0;entryDy=0;" edge="1" parent="1" source="nqYZnZJpOVF91P2B-A_t-2" target="nqYZnZJpOVF91P2B-A_t-74">
          <mxGeometry relative="1" as="geometry">
            <Array as="points">
              <mxPoint x="705" y="610" />
            </Array>
          </mxGeometry>
        </mxCell>
        <mxCell id="nqYZnZJpOVF91P2B-A_t-2" value="" style="verticalLabelPosition=bottom;verticalAlign=top;html=1;shape=mxgraph.basic.frame;dx=10;whiteSpace=wrap;" vertex="1" parent="1">
          <mxGeometry x="680" y="520" width="100" height="60" as="geometry" />
        </mxCell>
        <mxCell id="nqYZnZJpOVF91P2B-A_t-5" value="Inventario" style="text;html=1;align=center;verticalAlign=middle;resizable=0;points=[];autosize=1;strokeColor=none;fillColor=none;" vertex="1" parent="1">
          <mxGeometry x="690" y="535" width="80" height="30" as="geometry" />
        </mxCell>
        <mxCell id="nqYZnZJpOVF91P2B-A_t-6" value="(0,1&lt;span style=&quot;background-color: transparent; color: light-dark(rgb(0, 0, 0), rgb(255, 255, 255));&quot;&gt;)&lt;/span&gt;" style="text;html=1;align=center;verticalAlign=middle;resizable=0;points=[];autosize=1;strokeColor=none;fillColor=none;" vertex="1" parent="1">
          <mxGeometry x="630" y="550" width="50" height="30" as="geometry" />
        </mxCell>
        <mxCell id="nqYZnZJpOVF91P2B-A_t-10" style="edgeStyle=orthogonalEdgeStyle;rounded=0;orthogonalLoop=1;jettySize=auto;html=1;exitX=1;exitY=0;exitDx=0;exitDy=0;exitPerimeter=0;" edge="1" parent="1" source="nqYZnZJpOVF91P2B-A_t-7">
          <mxGeometry relative="1" as="geometry">
            <mxPoint x="-80" y="480" as="targetPoint" />
            <Array as="points">
              <mxPoint x="-79" y="440" />
              <mxPoint x="-79" y="480" />
            </Array>
          </mxGeometry>
        </mxCell>
        <mxCell id="nqYZnZJpOVF91P2B-A_t-145" style="edgeStyle=orthogonalEdgeStyle;rounded=0;orthogonalLoop=1;jettySize=auto;html=1;exitX=0;exitY=0;exitDx=0;exitDy=0;exitPerimeter=0;entryX=0.5;entryY=0;entryDx=0;entryDy=0;" edge="1" parent="1" source="nqYZnZJpOVF91P2B-A_t-7" target="nqYZnZJpOVF91P2B-A_t-12">
          <mxGeometry relative="1" as="geometry">
            <Array as="points">
              <mxPoint x="80" y="440" />
            </Array>
          </mxGeometry>
        </mxCell>
        <mxCell id="nqYZnZJpOVF91P2B-A_t-7" value="ID" style="strokeWidth=2;html=1;shape=mxgraph.flowchart.merge_or_storage;whiteSpace=wrap;direction=west;" vertex="1" parent="1">
          <mxGeometry x="-40" y="380" width="80" height="60" as="geometry" />
        </mxCell>
        <mxCell id="nqYZnZJpOVF91P2B-A_t-84" style="edgeStyle=orthogonalEdgeStyle;rounded=0;orthogonalLoop=1;jettySize=auto;html=1;exitX=0.25;exitY=1;exitDx=0;exitDy=0;entryX=0;entryY=0.5;entryDx=0;entryDy=0;" edge="1" parent="1" source="nqYZnZJpOVF91P2B-A_t-11" target="nqYZnZJpOVF91P2B-A_t-80">
          <mxGeometry relative="1" as="geometry" />
        </mxCell>
        <mxCell id="nqYZnZJpOVF91P2B-A_t-85" style="edgeStyle=orthogonalEdgeStyle;rounded=0;orthogonalLoop=1;jettySize=auto;html=1;exitX=0.25;exitY=1;exitDx=0;exitDy=0;entryX=0;entryY=0.5;entryDx=0;entryDy=0;" edge="1" parent="1" source="nqYZnZJpOVF91P2B-A_t-11" target="nqYZnZJpOVF91P2B-A_t-81">
          <mxGeometry relative="1" as="geometry">
            <Array as="points">
              <mxPoint x="-100" y="550" />
            </Array>
          </mxGeometry>
        </mxCell>
        <mxCell id="nqYZnZJpOVF91P2B-A_t-11" value="PN" style="rounded=1;whiteSpace=wrap;html=1;" vertex="1" parent="1">
          <mxGeometry x="-120" y="480" width="80" height="40" as="geometry" />
        </mxCell>
        <mxCell id="nqYZnZJpOVF91P2B-A_t-86" style="edgeStyle=orthogonalEdgeStyle;rounded=0;orthogonalLoop=1;jettySize=auto;html=1;exitX=0.25;exitY=1;exitDx=0;exitDy=0;entryX=0;entryY=0.5;entryDx=0;entryDy=0;" edge="1" parent="1" source="nqYZnZJpOVF91P2B-A_t-12" target="nqYZnZJpOVF91P2B-A_t-82">
          <mxGeometry relative="1" as="geometry" />
        </mxCell>
        <mxCell id="nqYZnZJpOVF91P2B-A_t-87" style="edgeStyle=orthogonalEdgeStyle;rounded=0;orthogonalLoop=1;jettySize=auto;html=1;exitX=0.25;exitY=1;exitDx=0;exitDy=0;entryX=0;entryY=0.5;entryDx=0;entryDy=0;" edge="1" parent="1" source="nqYZnZJpOVF91P2B-A_t-12" target="nqYZnZJpOVF91P2B-A_t-83">
          <mxGeometry relative="1" as="geometry">
            <Array as="points">
              <mxPoint x="60" y="550" />
            </Array>
          </mxGeometry>
        </mxCell>
        <mxCell id="nqYZnZJpOVF91P2B-A_t-12" value="PJ" style="rounded=1;whiteSpace=wrap;html=1;" vertex="1" parent="1">
          <mxGeometry x="40" y="480" width="80" height="40" as="geometry" />
        </mxCell>
        <mxCell id="nqYZnZJpOVF91P2B-A_t-38" value="(1,n)" style="text;html=1;align=center;verticalAlign=middle;resizable=0;points=[];autosize=1;strokeColor=none;fillColor=none;" vertex="1" parent="1">
          <mxGeometry x="389" y="370" width="50" height="30" as="geometry" />
        </mxCell>
        <mxCell id="nqYZnZJpOVF91P2B-A_t-40" value="ITEMS" style="text;html=1;align=center;verticalAlign=middle;resizable=0;points=[];autosize=1;strokeColor=none;fillColor=none;" vertex="1" parent="1">
          <mxGeometry x="324" y="370" width="60" height="30" as="geometry" />
        </mxCell>
        <mxCell id="nqYZnZJpOVF91P2B-A_t-41" value="(1,n)" style="text;html=1;align=center;verticalAlign=middle;resizable=0;points=[];autosize=1;strokeColor=none;fillColor=none;" vertex="1" parent="1">
          <mxGeometry x="394" y="490" width="50" height="30" as="geometry" />
        </mxCell>
        <mxCell id="nqYZnZJpOVF91P2B-A_t-45" value="" style="edgeStyle=orthogonalEdgeStyle;rounded=0;orthogonalLoop=1;jettySize=auto;html=1;" edge="1" parent="1" source="nqYZnZJpOVF91P2B-A_t-42" target="nqYZnZJpOVF91P2B-A_t-44">
          <mxGeometry relative="1" as="geometry" />
        </mxCell>
        <mxCell id="nqYZnZJpOVF91P2B-A_t-42" value="&lt;div&gt;&lt;br&gt;&lt;/div&gt;Pertenece" style="rhombus;whiteSpace=wrap;html=1;verticalAlign=top;" vertex="1" parent="1">
          <mxGeometry x="329" y="640" width="110" height="60" as="geometry" />
        </mxCell>
        <mxCell id="nqYZnZJpOVF91P2B-A_t-118" style="edgeStyle=orthogonalEdgeStyle;rounded=0;orthogonalLoop=1;jettySize=auto;html=1;exitX=1;exitY=0.5;exitDx=0;exitDy=0;entryX=0;entryY=0.5;entryDx=0;entryDy=0;" edge="1" parent="1" source="nqYZnZJpOVF91P2B-A_t-44" target="nqYZnZJpOVF91P2B-A_t-89">
          <mxGeometry relative="1" as="geometry" />
        </mxCell>
        <mxCell id="nqYZnZJpOVF91P2B-A_t-119" style="edgeStyle=orthogonalEdgeStyle;rounded=0;orthogonalLoop=1;jettySize=auto;html=1;exitX=1;exitY=0.5;exitDx=0;exitDy=0;entryX=0;entryY=0.5;entryDx=0;entryDy=0;" edge="1" parent="1" source="nqYZnZJpOVF91P2B-A_t-44" target="nqYZnZJpOVF91P2B-A_t-90">
          <mxGeometry relative="1" as="geometry" />
        </mxCell>
        <mxCell id="nqYZnZJpOVF91P2B-A_t-120" style="edgeStyle=orthogonalEdgeStyle;rounded=0;orthogonalLoop=1;jettySize=auto;html=1;exitX=1;exitY=0.5;exitDx=0;exitDy=0;entryX=0;entryY=0.5;entryDx=0;entryDy=0;" edge="1" parent="1" source="nqYZnZJpOVF91P2B-A_t-44" target="nqYZnZJpOVF91P2B-A_t-88">
          <mxGeometry relative="1" as="geometry" />
        </mxCell>
        <mxCell id="nqYZnZJpOVF91P2B-A_t-123" style="edgeStyle=orthogonalEdgeStyle;rounded=0;orthogonalLoop=1;jettySize=auto;html=1;exitX=0.5;exitY=1;exitDx=0;exitDy=0;entryX=0.5;entryY=0;entryDx=0;entryDy=0;" edge="1" parent="1" source="nqYZnZJpOVF91P2B-A_t-44" target="nqYZnZJpOVF91P2B-A_t-122">
          <mxGeometry relative="1" as="geometry" />
        </mxCell>
        <mxCell id="nqYZnZJpOVF91P2B-A_t-44" value="&lt;div&gt;&lt;br&gt;&lt;/div&gt;&lt;div&gt;Editorial&lt;/div&gt;" style="whiteSpace=wrap;html=1;verticalAlign=top;" vertex="1" parent="1">
          <mxGeometry x="324" y="780" width="120" height="60" as="geometry" />
        </mxCell>
        <mxCell id="nqYZnZJpOVF91P2B-A_t-46" value="(1,1)" style="text;html=1;align=center;verticalAlign=middle;resizable=0;points=[];autosize=1;strokeColor=none;fillColor=none;" vertex="1" parent="1">
          <mxGeometry x="394" y="750" width="50" height="30" as="geometry" />
        </mxCell>
        <mxCell id="nqYZnZJpOVF91P2B-A_t-58" value="Telefono 1" style="ellipse;whiteSpace=wrap;html=1;align=center;dashed=1;" vertex="1" parent="1">
          <mxGeometry x="680" y="800" width="100" height="40" as="geometry" />
        </mxCell>
        <mxCell id="nqYZnZJpOVF91P2B-A_t-59" value="Telefono 2" style="ellipse;whiteSpace=wrap;html=1;align=center;dashed=1;" vertex="1" parent="1">
          <mxGeometry x="680" y="880" width="100" height="40" as="geometry" />
        </mxCell>
        <mxCell id="nqYZnZJpOVF91P2B-A_t-64" value="Fecha" style="ellipse;whiteSpace=wrap;html=1;align=center;" vertex="1" parent="1">
          <mxGeometry x="500" y="240" width="100" height="40" as="geometry" />
        </mxCell>
        <mxCell id="nqYZnZJpOVF91P2B-A_t-65" value="Valor" style="ellipse;whiteSpace=wrap;html=1;align=center;" vertex="1" parent="1">
          <mxGeometry x="500" y="290" width="100" height="40" as="geometry" />
        </mxCell>
        <mxCell id="nqYZnZJpOVF91P2B-A_t-71" value="CODIGO&lt;div&gt;CLIENTE&lt;/div&gt;" style="ellipse;whiteSpace=wrap;html=1;align=center;fontStyle=4;" vertex="1" parent="1">
          <mxGeometry x="500" y="130" width="100" height="40" as="geometry" />
        </mxCell>
        <mxCell id="nqYZnZJpOVF91P2B-A_t-72" value="CODIGO&lt;div&gt;PEDIDO&lt;/div&gt;" style="ellipse;whiteSpace=wrap;html=1;align=center;fontStyle=4;" vertex="1" parent="1">
          <mxGeometry x="500" y="180" width="100" height="40" as="geometry" />
        </mxCell>
        <mxCell id="nqYZnZJpOVF91P2B-A_t-74" value="CODIGO&lt;div&gt;LIBRO&lt;/div&gt;" style="ellipse;whiteSpace=wrap;html=1;align=center;fontStyle=4;" vertex="1" parent="1">
          <mxGeometry x="727" y="590" width="100" height="40" as="geometry" />
        </mxCell>
        <mxCell id="nqYZnZJpOVF91P2B-A_t-75" value="CODIGO&lt;div&gt;EDITORIAL&lt;/div&gt;" style="ellipse;whiteSpace=wrap;html=1;align=center;fontStyle=4;" vertex="1" parent="1">
          <mxGeometry x="727" y="640" width="100" height="40" as="geometry" />
        </mxCell>
        <mxCell id="nqYZnZJpOVF91P2B-A_t-76" value="Cantidad" style="ellipse;whiteSpace=wrap;html=1;align=center;" vertex="1" parent="1">
          <mxGeometry x="727" y="690" width="100" height="40" as="geometry" />
        </mxCell>
        <mxCell id="nqYZnZJpOVF91P2B-A_t-80" value="RUN" style="ellipse;whiteSpace=wrap;html=1;align=center;" vertex="1" parent="1">
          <mxGeometry x="-80" y="580" width="100" height="40" as="geometry" />
        </mxCell>
        <mxCell id="nqYZnZJpOVF91P2B-A_t-81" value="DNI" style="ellipse;whiteSpace=wrap;html=1;align=center;" vertex="1" parent="1">
          <mxGeometry x="-80" y="530" width="100" height="40" as="geometry" />
        </mxCell>
        <mxCell id="nqYZnZJpOVF91P2B-A_t-82" value="RUES" style="ellipse;whiteSpace=wrap;html=1;align=center;" vertex="1" parent="1">
          <mxGeometry x="80" y="580" width="100" height="40" as="geometry" />
        </mxCell>
        <mxCell id="nqYZnZJpOVF91P2B-A_t-83" value="NIT" style="ellipse;whiteSpace=wrap;html=1;align=center;" vertex="1" parent="1">
          <mxGeometry x="80" y="530" width="100" height="40" as="geometry" />
        </mxCell>
        <mxCell id="nqYZnZJpOVF91P2B-A_t-93" style="edgeStyle=orthogonalEdgeStyle;rounded=0;orthogonalLoop=1;jettySize=auto;html=1;exitX=1;exitY=0.5;exitDx=0;exitDy=0;entryX=0;entryY=0.5;entryDx=0;entryDy=0;" edge="1" parent="1" source="nqYZnZJpOVF91P2B-A_t-88" target="nqYZnZJpOVF91P2B-A_t-58">
          <mxGeometry relative="1" as="geometry" />
        </mxCell>
        <mxCell id="nqYZnZJpOVF91P2B-A_t-94" style="edgeStyle=orthogonalEdgeStyle;rounded=0;orthogonalLoop=1;jettySize=auto;html=1;exitX=1;exitY=0.5;exitDx=0;exitDy=0;entryX=0;entryY=0.5;entryDx=0;entryDy=0;" edge="1" parent="1" source="nqYZnZJpOVF91P2B-A_t-88" target="nqYZnZJpOVF91P2B-A_t-59">
          <mxGeometry relative="1" as="geometry" />
        </mxCell>
        <mxCell id="nqYZnZJpOVF91P2B-A_t-88" value="Telefono" style="ellipse;whiteSpace=wrap;html=1;align=center;" vertex="1" parent="1">
          <mxGeometry x="500" y="840" width="100" height="40" as="geometry" />
        </mxCell>
        <mxCell id="nqYZnZJpOVF91P2B-A_t-89" value="Nombre" style="ellipse;whiteSpace=wrap;html=1;align=center;" vertex="1" parent="1">
          <mxGeometry x="500" y="740" width="100" height="40" as="geometry" />
        </mxCell>
        <mxCell id="nqYZnZJpOVF91P2B-A_t-90" value="Email" style="ellipse;whiteSpace=wrap;html=1;align=center;" vertex="1" parent="1">
          <mxGeometry x="500" y="790" width="100" height="40" as="geometry" />
        </mxCell>
        <mxCell id="nqYZnZJpOVF91P2B-A_t-98" value="Nombre" style="ellipse;whiteSpace=wrap;html=1;align=center;" vertex="1" parent="1">
          <mxGeometry x="-130" y="650" width="100" height="40" as="geometry" />
        </mxCell>
        <mxCell id="nqYZnZJpOVF91P2B-A_t-101" value="Telefono" style="ellipse;whiteSpace=wrap;html=1;align=center;" vertex="1" parent="1">
          <mxGeometry x="-130" y="770" width="100" height="40" as="geometry" />
        </mxCell>
        <mxCell id="nqYZnZJpOVF91P2B-A_t-102" value="Email" style="ellipse;whiteSpace=wrap;html=1;align=center;" vertex="1" parent="1">
          <mxGeometry x="-130" y="830" width="100" height="40" as="geometry" />
        </mxCell>
        <mxCell id="nqYZnZJpOVF91P2B-A_t-111" style="edgeStyle=orthogonalEdgeStyle;rounded=0;orthogonalLoop=1;jettySize=auto;html=1;exitX=1;exitY=0.5;exitDx=0;exitDy=0;entryX=0;entryY=0.5;entryDx=0;entryDy=0;" edge="1" parent="1" source="nqYZnZJpOVF91P2B-A_t-103" target="nqYZnZJpOVF91P2B-A_t-107">
          <mxGeometry relative="1" as="geometry" />
        </mxCell>
        <mxCell id="nqYZnZJpOVF91P2B-A_t-112" style="edgeStyle=orthogonalEdgeStyle;rounded=0;orthogonalLoop=1;jettySize=auto;html=1;exitX=1;exitY=0.5;exitDx=0;exitDy=0;entryX=0;entryY=0.5;entryDx=0;entryDy=0;" edge="1" parent="1" source="nqYZnZJpOVF91P2B-A_t-103" target="nqYZnZJpOVF91P2B-A_t-110">
          <mxGeometry relative="1" as="geometry" />
        </mxCell>
        <mxCell id="nqYZnZJpOVF91P2B-A_t-113" style="edgeStyle=orthogonalEdgeStyle;rounded=0;orthogonalLoop=1;jettySize=auto;html=1;exitX=1;exitY=0.5;exitDx=0;exitDy=0;entryX=0;entryY=0.5;entryDx=0;entryDy=0;" edge="1" parent="1" source="nqYZnZJpOVF91P2B-A_t-103" target="nqYZnZJpOVF91P2B-A_t-108">
          <mxGeometry relative="1" as="geometry" />
        </mxCell>
        <mxCell id="nqYZnZJpOVF91P2B-A_t-114" style="edgeStyle=orthogonalEdgeStyle;rounded=0;orthogonalLoop=1;jettySize=auto;html=1;exitX=1;exitY=0.5;exitDx=0;exitDy=0;entryX=0;entryY=0.5;entryDx=0;entryDy=0;" edge="1" parent="1" source="nqYZnZJpOVF91P2B-A_t-103" target="nqYZnZJpOVF91P2B-A_t-109">
          <mxGeometry relative="1" as="geometry" />
        </mxCell>
        <mxCell id="nqYZnZJpOVF91P2B-A_t-103" value="DirecciÃ³n" style="ellipse;whiteSpace=wrap;html=1;align=center;" vertex="1" parent="1">
          <mxGeometry x="-130" y="710" width="100" height="40" as="geometry" />
        </mxCell>
        <mxCell id="nqYZnZJpOVF91P2B-A_t-107" value="Calle" style="ellipse;whiteSpace=wrap;html=1;align=center;dashed=1;" vertex="1" parent="1">
          <mxGeometry x="10" y="640" width="100" height="40" as="geometry" />
        </mxCell>
        <mxCell id="nqYZnZJpOVF91P2B-A_t-108" value="Barrio" style="ellipse;whiteSpace=wrap;html=1;align=center;dashed=1;" vertex="1" parent="1">
          <mxGeometry x="10" y="690" width="100" height="40" as="geometry" />
        </mxCell>
        <mxCell id="nqYZnZJpOVF91P2B-A_t-109" value="Ciudad" style="ellipse;whiteSpace=wrap;html=1;align=center;dashed=1;" vertex="1" parent="1">
          <mxGeometry x="10" y="740" width="100" height="40" as="geometry" />
        </mxCell>
        <mxCell id="nqYZnZJpOVF91P2B-A_t-110" value="Estado" style="ellipse;whiteSpace=wrap;html=1;align=center;dashed=1;" vertex="1" parent="1">
          <mxGeometry x="10" y="790" width="100" height="40" as="geometry" />
        </mxCell>
        <mxCell id="nqYZnZJpOVF91P2B-A_t-122" value="CODIGO&lt;div&gt;EDITORIAL&lt;/div&gt;" style="ellipse;whiteSpace=wrap;html=1;align=center;fontStyle=4;" vertex="1" parent="1">
          <mxGeometry x="334" y="870" width="100" height="40" as="geometry" />
        </mxCell>
        <mxCell id="nqYZnZJpOVF91P2B-A_t-124" value="CODIGO&lt;div&gt;CLIENTE&lt;/div&gt;" style="ellipse;whiteSpace=wrap;html=1;align=center;fontStyle=4;" vertex="1" parent="1">
          <mxGeometry x="-50" y="235" width="100" height="40" as="geometry" />
        </mxCell>
        <mxCell id="nqYZnZJpOVF91P2B-A_t-128" value="CODIGO&lt;div&gt;PEDIDO&lt;/div&gt;" style="ellipse;whiteSpace=wrap;html=1;align=center;fontStyle=4;" vertex="1" parent="1">
          <mxGeometry x="160" y="260" width="100" height="40" as="geometry" />
        </mxCell>
        <mxCell id="nqYZnZJpOVF91P2B-A_t-129" value="CODIGO&lt;div&gt;LIBRO&lt;/div&gt;" style="ellipse;whiteSpace=wrap;html=1;align=center;fontStyle=4;" vertex="1" parent="1">
          <mxGeometry x="160" y="320" width="100" height="40" as="geometry" />
        </mxCell>
        <mxCell id="nqYZnZJpOVF91P2B-A_t-130" value="Cantidad" style="ellipse;whiteSpace=wrap;html=1;align=center;" vertex="1" parent="1">
          <mxGeometry x="160" y="380" width="100" height="40" as="geometry" />
        </mxCell>
        <mxCell id="nqYZnZJpOVF91P2B-A_t-131" value="Valor" style="ellipse;whiteSpace=wrap;html=1;align=center;" vertex="1" parent="1">
          <mxGeometry x="160" y="440" width="100" height="40" as="geometry" />
        </mxCell>
        <mxCell id="nqYZnZJpOVF91P2B-A_t-136" value="CODIGO&lt;div&gt;EDITORIAL&lt;/div&gt;" style="ellipse;whiteSpace=wrap;html=1;align=center;fontStyle=4;" vertex="1" parent="1">
          <mxGeometry x="190" y="570" width="100" height="40" as="geometry" />
        </mxCell>
        <mxCell id="nqYZnZJpOVF91P2B-A_t-137" value="CODIGO&lt;div&gt;LIBRO&lt;/div&gt;" style="ellipse;whiteSpace=wrap;html=1;align=center;fontStyle=4;" vertex="1" parent="1">
          <mxGeometry x="190" y="620" width="100" height="40" as="geometry" />
        </mxCell>
        <mxCell id="nqYZnZJpOVF91P2B-A_t-138" value="TÃ­tulo" style="ellipse;whiteSpace=wrap;html=1;align=center;" vertex="1" parent="1">
          <mxGeometry x="190" y="670" width="100" height="40" as="geometry" />
        </mxCell>
        <mxCell id="nqYZnZJpOVF91P2B-A_t-139" value="CategorÃ­a" style="ellipse;whiteSpace=wrap;html=1;align=center;" vertex="1" parent="1">
          <mxGeometry x="190" y="720" width="100" height="40" as="geometry" />
        </mxCell>
        <mxCell id="nqYZnZJpOVF91P2B-A_t-140" value="ISBN" style="ellipse;whiteSpace=wrap;html=1;align=center;" vertex="1" parent="1">
          <mxGeometry x="190" y="770" width="100" height="40" as="geometry" />
        </mxCell>
        <mxCell id="nqYZnZJpOVF91P2B-A_t-141" value="AÃ±o&lt;div&gt;PublicaciÃ³n&lt;/div&gt;" style="ellipse;whiteSpace=wrap;html=1;align=center;" vertex="1" parent="1">
          <mxGeometry x="190" y="820" width="100" height="40" as="geometry" />
        </mxCell>
        <mxCell id="nqYZnZJpOVF91P2B-A_t-142" value="Editorial" style="ellipse;whiteSpace=wrap;html=1;align=center;" vertex="1" parent="1">
          <mxGeometry x="190" y="870" width="100" height="40" as="geometry" />
        </mxCell>
        <mxCell id="nqYZnZJpOVF91P2B-A_t-143" value="Valor" style="ellipse;whiteSpace=wrap;html=1;align=center;" vertex="1" parent="1">
          <mxGeometry x="190" y="920" width="100" height="40" as="geometry" />
        </mxCell>
        <mxCell id="nqYZnZJpOVF91P2B-A_t-144" style="edgeStyle=orthogonalEdgeStyle;rounded=0;orthogonalLoop=1;jettySize=auto;html=1;exitX=1;exitY=0.5;exitDx=0;exitDy=0;entryX=0.5;entryY=1;entryDx=0;entryDy=0;entryPerimeter=0;" edge="1" parent="1" source="hLjN54tpJvyU8sjbUc9N-58" target="nqYZnZJpOVF91P2B-A_t-7">
          <mxGeometry relative="1" as="geometry" />
        </mxCell>
        <mxCell id="nqYZnZJpOVF91P2B-A_t-146" value="Autor" style="ellipse;whiteSpace=wrap;html=1;align=center;" vertex="1" parent="1">
          <mxGeometry x="190" y="970" width="100" height="40" as="geometry" />
        </mxCell>
      </root>
    </mxGraphModel>
  </diagram>
</mxfile>
